<svg xmlns="http://www.w3.org/2000/svg" width="264" height="70" viewBox="0 0 264 70">
    <g fill="none" fill-rule="evenodd">
        <path fill="#3DDB93" d="M17.092 33.57l8.615 18.468v2.245L0 32.653c3.654-4.353 10.146-4.92 14.5-1.267l2.592 2.184zM8.67 11.839l.185-.087a10.416 10.416 0 0 1 4.429-.986 10.54 10.54 0 0 1 9.52 6.063l2.766 6.846v24.56L8.67 11.84zm54.044 27.274l7.268 15.266-6.444-2.287a18.586 18.586 0 0 1-9.7 11.39c-6.6 3.21-14.166 2.17-19.596-2.05l-.016.018-7.178-6.039.004-51.036c5.684 0 10.292 4.607 10.292 10.292v15.386c.065-.034.132-.067.2-.1 9.151-4.447 20.156-.728 24.753 8.301l-9.283 4.419a8.365 8.365 0 0 0-10.98-3.48 8.362 8.362 0 0 0-3.868 11.183 8.3 8.3 0 0 0 2.357 2.924 8.366 8.366 0 0 0 13.31-4.653L47.45 46.38l15.266-7.267z"/>
        <path fill="#000" d="M104.946 44.953v7.828h3.5c3.105 0 4.657-1.326 4.657-3.978 0-1.24-.415-2.193-1.246-2.856-.831-.662-2.035-.994-3.613-.994h-3.298zm0-7.368h2.995c1.427 0 2.53-.298 3.311-.893.781-.595 1.172-1.479 1.172-2.652 0-2.09-1.561-3.136-4.684-3.136h-2.794v6.68zM95 23.28h12.841c5.002 0 8.716.751 11.142 2.256 2.425 1.504 3.637 3.845 3.637 7.025 0 2.09-.528 3.875-1.586 5.354-1.057 1.479-2.45 2.43-4.179 2.856v.254c2.282.612 3.936 1.633 4.96 3.06 1.024 1.428 1.536 3.28 1.536 5.559 0 3.382-1.255 6.047-3.764 7.993-2.51 1.947-5.93 2.92-10.26 2.92H95V23.28zM128.024 61V37.513h8.182V61h-8.182zm-.543-32.506c0-.64.12-1.244.362-1.809a4.733 4.733 0 0 1 2.464-2.494 4.4 4.4 0 0 1 1.785-.367c.633 0 1.228.122 1.786.367.558.244 1.047.58 1.47 1.007.421.428.752.923.994 1.487a4.56 4.56 0 0 1 .362 1.809c0 .64-.121 1.244-.362 1.808a4.757 4.757 0 0 1-.995 1.489 4.673 4.673 0 0 1-1.47 1.006 4.385 4.385 0 0 1-1.785.367 4.384 4.384 0 0 1-1.785-.367 4.724 4.724 0 0 1-2.464-2.495 4.54 4.54 0 0 1-.362-1.808zM141.812 61V23h8.183v38h-8.183zm13.79 0V23h8.182v38H155.6zm25.015-30.95h6.613v6.914h-6.613V61h-8.229V36.964h-6.612V30.05h6.612V23h8.229v7.05zm9.285 7.463h8.182v3.846c.875-1.403 1.945-2.48 3.21-3.228 1.266-.747 2.743-1.121 4.431-1.121h.701c.255 0 .55.03.882.091v7.92a7.699 7.699 0 0 0-3.527-.823c-1.898 0-3.323.572-4.272 1.717-.95 1.144-1.425 2.815-1.425 5.013V61h-8.182V37.513zM210.969 61V37.513h8.183V61h-8.183zm-.543-32.506c0-.64.12-1.244.362-1.809.241-.564.573-1.06.995-1.487a4.691 4.691 0 0 1 1.469-1.007 4.404 4.404 0 0 1 1.786-.367c.633 0 1.227.122 1.785.367.558.244 1.048.58 1.47 1.007.422.428.753.923.994 1.487a4.56 4.56 0 0 1 .362 1.809c0 .64-.12 1.244-.362 1.808a4.757 4.757 0 0 1-.994 1.489 4.673 4.673 0 0 1-1.47 1.006 4.387 4.387 0 0 1-1.785.367 4.388 4.388 0 0 1-1.786-.367 4.674 4.674 0 0 1-1.47-1.006 4.739 4.739 0 0 1-.994-1.489 4.55 4.55 0 0 1-.362-1.808zm14.332 9.02h8.182v2.883c2.23-2.166 4.732-3.25 7.506-3.25 3.435 0 6.058 1.465 7.866 4.395 1.838-2.96 4.46-4.44 7.866-4.44 1.085 0 2.11.16 3.075.48a6.31 6.31 0 0 1 2.486 1.51c.693.687 1.243 1.58 1.65 2.68.407 1.098.611 2.426.611 3.982V61h-8.183V49.417c0-1.19-.084-2.167-.25-2.93-.165-.763-.406-1.358-.722-1.786-.317-.427-.686-.717-1.108-.87a3.975 3.975 0 0 0-1.356-.229c-2.623 0-3.934 1.939-3.934 5.815V61h-8.183V49.417c0-1.19-.075-2.175-.225-2.953-.152-.779-.37-1.397-.656-1.854-.287-.458-.656-.77-1.108-.939-.452-.167-.98-.252-1.582-.252-.513 0-.995.077-1.447.229-.452.154-.851.45-1.198.893-.346.443-.618 1.053-.814 1.831-.196.779-.294 1.794-.294 3.045V61h-8.182V37.513z"/>
    </g>
</svg>
