<svg xmlns="http://www.w3.org/2000/svg" xmlns:xlink="http://www.w3.org/1999/xlink" width="140" height="140" viewBox="0 0 140 140">
    <defs>
        <path id="a" d="M3.036 1.815a2.102 2.102 0 0 1-1.243 1.239l-1.652.609 1.652.608A2.1 2.1 0 0 1 3.036 5.51l.611 1.645.61-1.645a2.102 2.102 0 0 1 1.245-1.238l1.651-.608-1.651-.61a2.104 2.104 0 0 1-1.244-1.238L3.648.17l-.612 1.645z"/>
        <path id="b" d="M0 .142h114.938v99.8H0z"/>
    </defs>
    <g fill="none" fill-rule="evenodd">
        <path fill="#FFF" d="M110.78 121.291H18.158c-4.936 0-8.938-4.016-8.938-8.97V34.918c0-4.954 4.002-8.97 8.938-8.97h92.622c4.936 0 8.938 4.016 8.938 8.97v77.403c0 4.954-4.002 8.97-8.938 8.97"/>
        <g transform="translate(7 23.578)">
            <mask id="c" fill="#fff">
                <use xlink:href="#b"/>
            </mask>
            <path fill="#6BBDFF" d="M11.158 4.598c-3.704 0-6.718 3.025-6.718 6.743v77.402c0 3.718 3.014 6.743 6.718 6.743h92.622c3.704 0 6.718-3.025 6.718-6.743V11.341c0-3.718-3.014-6.743-6.718-6.743H11.158zm92.622 95.344H11.158C5.006 99.942 0 94.918 0 88.743V11.341C0 5.165 5.006.14 11.158.14h92.622c6.153 0 11.158 5.024 11.158 11.2v77.402c0 6.175-5.005 11.199-11.158 11.199z" mask="url(#c)"/>
        </g>
        <path fill="#7F70EC" d="M39.704 61.154a4 4 0 0 1 5.458 1.539 4.03 4.03 0 0 1-1.533 5.477 4 4 0 0 1-5.458-1.538 4.03 4.03 0 0 1 1.533-5.478"/>
        <path fill="#6BBDFF" d="M110.349 51.05L40.44 90.44a4.013 4.013 0 0 1-5.458-1.538L13.396 50.314c-1.08-1.929-.39-4.395 1.533-5.477L84.836 5.446a4.014 4.014 0 0 1 5.459 1.538l21.586 38.588c1.08 1.93.39 4.394-1.532 5.478"/>
        <path fill="#FFF" d="M101.395 51.48L45.47 82.995c-2.159-3.86-7.07-5.244-10.916-3.078L20.817 55.361c3.844-2.167 5.224-7.097 3.065-10.955l55.926-31.513c2.159 3.858 7.071 5.243 10.916 3.077l13.737 24.556c-3.845 2.166-5.224 7.096-3.066 10.955"/>
        <path fill="#6BBDFF" d="M53.807 32.157c7.723-4.35 17.936-.81 22.813 7.908 4.878 8.719 2.571 19.313-5.15 23.664-7.722 4.35-17.936.81-22.813-7.908-4.877-8.718-2.571-19.313 5.15-23.664"/>
        <path fill="#7F70EC" d="M65.033 50.332c-.999.007-1.99.141-2.98.26-.573.068-1.145.094-1.713.001-1.122-.183-1.537-1.274-.853-2.184.194-.258.442-.445.707-.615a6.932 6.932 0 0 1 3.335-1.095c.602-.038.718-.199.601-.784-.124-.62-.281-1.23-.42-1.845-.094-.414-.353-.575-.77-.537a8.75 8.75 0 0 0-2.211.5c-.934.351-.936.347-1.424-.516-.687-1.218-.687-1.218-1.907-.531-.177.1-.356.195-.53.298-.56.337-.6.492-.295 1.077.136.262.289.516.431.78.424.768.414.758-.168 1.435-1.405 1.64-1.82 3.463-.856 5.462.853 1.77 2.391 2.425 4.262 2.477 1.154.033 2.28-.2 3.423-.308.445-.043.887-.055 1.324.028 1.287.233 1.805 1.536 1.018 2.583-.42.56-.976.953-1.625 1.218-1 .41-2.033.669-3.121.704-.638.02-.745.171-.613.802.114.544.248 1.084.38 1.623.18.725.327.839 1.09.796.969-.06 1.89-.33 2.795-.665.708-.26.744-.244 1.13.428.176.304.35.614.525.918.22.384.53.506.933.29.453-.245.907-.501 1.35-.766.364-.216.44-.524.23-.899-.233-.418-.45-.852-.7-1.262-.26-.416-.196-.737.15-1.081a5.227 5.227 0 0 0 1.512-2.854c.546-3.062-1.823-5.76-5.01-5.738"/>
        <path fill="#FFF" d="M95.51 131.35l-77.566-9.042c-4.973-.58-8.724-4.806-8.724-9.83V34.249a3.308 3.308 0 0 0 2.919 3.29l85.646 9.983c4.973.58 8.724 4.806 8.724 9.83v64.167c0 5.918-5.141 10.513-10.998 9.83"/>
        <path fill="#6BBDFF" d="M11.44 39.682v72.796c0 3.893 2.906 7.168 6.76 7.617l77.567 9.041a7.633 7.633 0 0 0 5.963-1.89 7.687 7.687 0 0 0 2.559-5.727V57.352c0-3.893-2.906-7.168-6.76-7.617l-85.646-9.983a5.55 5.55 0 0 1-.443-.07m85.206 93.961c-.463 0-.927-.026-1.391-.08l-77.568-9.041C11.595 123.812 7 118.634 7 112.478V34.249c0-1.23.994-2.228 2.22-2.228 1.226 0 2.22.998 2.22 2.228 0 .55.41 1.013.955 1.077l85.647 9.983c6.093.71 10.687 5.888 10.687 12.043v64.167c0 3.456-1.475 6.757-4.047 9.055a12.069 12.069 0 0 1-8.036 3.07"/>
        <path fill="#ADDAFF" d="M27.18 112.876c-.067 0-.134-.004-.202-.013l-3.053-.39c-.826-.105-1.494-.805-1.461-1.641a1.583 1.583 0 0 1 1.778-1.515l3.045.389c.826.105 1.5.801 1.47 1.636a1.584 1.584 0 0 1-1.578 1.534m8.754-60.765c-.058 0-.117-.003-.175-.01l-6.037-.666c-.828-.091-1.507-.78-1.487-1.617a1.583 1.583 0 0 1 1.752-1.544l6.025.665c.832.092 1.52.782 1.5 1.622a1.583 1.583 0 0 1-1.578 1.55m12.233 1.35c-.057 0-.116-.004-.175-.01l-6.036-.666c-.828-.091-1.506-.78-1.487-1.617a1.582 1.582 0 0 1 1.752-1.544l6.024.665c.832.092 1.52.782 1.5 1.622a1.582 1.582 0 0 1-1.578 1.55m12.233 1.35c-.057 0-.115-.003-.174-.01l-6.036-.666c-.828-.091-1.507-.78-1.488-1.617a1.583 1.583 0 0 1 1.753-1.544l6.024.664c.832.092 1.52.783 1.5 1.622a1.583 1.583 0 0 1-1.579 1.55m12.234 1.35c-.057 0-.115-.003-.174-.01l-6.035-.665c-.829-.092-1.508-.782-1.49-1.618a1.584 1.584 0 0 1 1.753-1.544l6.026.665c.832.092 1.52.783 1.498 1.622a1.583 1.583 0 0 1-1.578 1.55m12.234 1.35c-.058 0-.116-.003-.175-.01l-6.036-.666c-.829-.091-1.507-.78-1.488-1.617a1.584 1.584 0 0 1 1.753-1.543l6.024.664c.832.092 1.52.782 1.5 1.622a1.584 1.584 0 0 1-1.578 1.55m11.65 3.104a1.57 1.57 0 0 1-1.085-.435c-1.172-1.114-2.797-1.824-4.577-1.999l-.031-.003c-.668-.07-1.244-.548-1.383-1.208-.24-1.134.671-2.059 1.71-1.946l.027.003c2.43.239 4.693 1.23 6.366 2.793.683.638.723 1.768.026 2.392a1.574 1.574 0 0 1-1.052.403m2.068 11.712c-.83-.072-1.438-.825-1.438-1.66v-6.014c0-.836.608-1.588 1.438-1.66a1.582 1.582 0 0 1 1.721 1.579v6.176c0 .922-.784 1.66-1.72 1.579m0 12.352c-.83-.072-1.44-.825-1.44-1.661v-6.013c0-.836.609-1.588 1.439-1.661a1.582 1.582 0 0 1 1.721 1.58v6.176c0 .922-.784 1.66-1.72 1.579m0 12.351c-.83-.072-1.44-.824-1.44-1.66v-6.013c0-.836.609-1.59 1.439-1.661a1.582 1.582 0 0 1 1.721 1.579v6.176c0 .922-.784 1.66-1.72 1.58m0 12.35c-.83-.072-1.44-.824-1.44-1.66v-6.013c0-.836.609-1.588 1.439-1.661a1.582 1.582 0 0 1 1.721 1.58v6.175c0 .923-.784 1.662-1.72 1.58m-59.184 5.055c-.066 0-.134-.004-.201-.012l-6.024-.77c-.828-.105-1.495-.807-1.46-1.644a1.584 1.584 0 0 1 1.778-1.512l6.015.768c.826.105 1.5.802 1.47 1.637a1.584 1.584 0 0 1-1.578 1.533m12.209 1.558c-.066 0-.133-.004-.201-.012l-6.024-.77c-.827-.105-1.495-.807-1.46-1.644a1.584 1.584 0 0 1 1.778-1.512l6.014.768c.826.105 1.5.802 1.47 1.637a1.583 1.583 0 0 1-1.577 1.533m12.21 1.559c-.067 0-.134-.005-.202-.013l-6.023-.769c-.827-.105-1.494-.806-1.461-1.641a1.583 1.583 0 0 1 1.779-1.516l6.015.768c.825.105 1.499.801 1.469 1.636a1.584 1.584 0 0 1-1.578 1.535m12.21 1.558c-.067 0-.135-.005-.202-.013l-6.024-.769c-.827-.105-1.494-.807-1.46-1.644a1.584 1.584 0 0 1 1.778-1.512l6.015.768c.826.105 1.5.8 1.47 1.635a1.584 1.584 0 0 1-1.578 1.535m18.218.773a1.58 1.58 0 0 1-1.496-1.075c-.27-.784.166-1.624.908-1.988 1.545-.754 2.709-1.975 3.207-3.367.272-.76 1.068-1.245 1.853-1.065a1.587 1.587 0 0 1 1.145 2.07c-.789 2.266-2.544 4.139-4.945 5.274a1.573 1.573 0 0 1-.672.151m-6.009.785c-.066 0-.134-.004-.202-.013l-6.023-.769c-.827-.105-1.494-.808-1.46-1.644a1.585 1.585 0 0 1 1.778-1.512l6.016.767c.825.106 1.499.802 1.469 1.637a1.583 1.583 0 0 1-1.578 1.534M24.82 50.76c-.057 0-.116-.003-.174-.01l-3.06-.337c-.829-.091-1.508-.78-1.489-1.617a1.583 1.583 0 0 1 1.753-1.545l3.05.337c.831.092 1.52.783 1.498 1.622a1.583 1.583 0 0 1-1.578 1.55"/>
        <path fill="#6BBDFF" d="M87.024 85.494c2.475 0 4.482 2.014 4.482 4.498 0 2.483-2.007 4.498-4.482 4.498s-4.482-2.015-4.482-4.498c0-2.484 2.007-4.498 4.482-4.498"/>
        <path fill="#ADDAFF" d="M18.41 111.715c-.066 0-.133-.005-.2-.013l-3.054-.39c-.827-.105-1.494-.806-1.462-1.641a1.582 1.582 0 0 1 1.78-1.515l3.044.388c.826.105 1.5.802 1.47 1.637a1.584 1.584 0 0 1-1.578 1.534M16.981 49.729a1.62 1.62 0 0 1-.201-.013l-3.054-.39c-.826-.105-1.494-.805-1.461-1.641a1.583 1.583 0 0 1 1.779-1.515l3.045.389c.825.105 1.499.801 1.47 1.636a1.585 1.585 0 0 1-1.578 1.534"/>
    </g>
</svg>
